<svg width="14" height="14" viewBox="0 0 14 14" fill="none" xmlns="http://www.w3.org/2000/svg">
<path d="M5.93862 10.061C6.07793 10.2004 6.24333 10.311 6.42538 10.3864C6.60743 10.4618 6.80256 10.5007 6.99962 10.5007C7.19669 10.5007 7.39182 10.4618 7.57387 10.3864C7.75592 10.311 7.92132 10.2004 8.06062 10.061L9.66612 8.45549C9.7522 8.36029 9.79838 8.23563 9.79508 8.10732C9.79179 7.97901 9.73928 7.85689 9.64843 7.76623C9.55757 7.67557 9.43534 7.62332 9.30702 7.6203C9.17871 7.61727 9.05414 7.66371 8.95912 7.74999L7.49612 9.21349L7.49962 1.49999C7.49962 1.36738 7.44695 1.24021 7.35318 1.14644C7.25941 1.05267 7.13223 0.999992 6.99962 0.999992V0.999992C6.86702 0.999992 6.73984 1.05267 6.64607 1.14644C6.5523 1.24021 6.49962 1.36738 6.49962 1.49999L6.49512 9.20399L5.04012 7.74999C4.9463 7.65624 4.81908 7.60359 4.68645 7.60364C4.55381 7.60369 4.42663 7.65642 4.33287 7.75024C4.23912 7.84406 4.18648 7.97128 4.18652 8.10392C4.18657 8.23656 4.2393 8.36374 4.33312 8.45749L5.93862 10.061Z" fill="white" stroke="white" stroke-width="0.5"/>
<path d="M12.5 9C12.3674 9 12.2402 9.05268 12.1464 9.14645C12.0527 9.24022 12 9.36739 12 9.5V11.5C12 11.6326 11.9473 11.7598 11.8536 11.8536C11.7598 11.9473 11.6326 12 11.5 12H2.5C2.36739 12 2.24021 11.9473 2.14645 11.8536C2.05268 11.7598 2 11.6326 2 11.5V9.5C2 9.36739 1.94732 9.24022 1.85355 9.14645C1.75979 9.05268 1.63261 9 1.5 9C1.36739 9 1.24021 9.05268 1.14645 9.14645C1.05268 9.24022 1 9.36739 1 9.5V11.5C1 11.8978 1.15804 12.2794 1.43934 12.5607C1.72064 12.842 2.10218 13 2.5 13H11.5C11.8978 13 12.2794 12.842 12.5607 12.5607C12.842 12.2794 13 11.8978 13 11.5V9.5C13 9.36739 12.9473 9.24022 12.8536 9.14645C12.7598 9.05268 12.6326 9 12.5 9Z" fill="white" stroke="white" stroke-width="0.5"/>
</svg>
