<svg width="13" height="12" viewBox="0 0 13 12" fill="none" xmlns="http://www.w3.org/2000/svg">
<g clip-path="url(#clip0_306_28756)">
<path d="M11.4792 2.02488H1.52071C1.41913 2.02488 1.32171 1.98435 1.24988 1.91222C1.17805 1.84008 1.1377 1.74223 1.1377 1.64021C1.1377 1.53819 1.17805 1.44035 1.24988 1.36821C1.32171 1.29607 1.41913 1.25555 1.52071 1.25555H11.4792C11.5808 1.25555 11.6782 1.29607 11.75 1.36821C11.8218 1.44035 11.8622 1.53819 11.8622 1.64021C11.8622 1.74223 11.8218 1.84008 11.75 1.91222C11.6782 1.98435 11.5808 2.02488 11.4792 2.02488Z" fill="white" stroke="white" stroke-linecap="round" stroke-linejoin="round"/>
<path d="M9.87936 6.32924H3.12069C3.03921 6.32924 2.96107 6.28687 2.90346 6.21145C2.84584 6.13603 2.81348 6.03373 2.81348 5.92707C2.81348 5.82041 2.84584 5.71812 2.90346 5.6427C2.96107 5.56727 3.03921 5.5249 3.12069 5.5249H9.87936C9.96083 5.5249 10.039 5.56727 10.0966 5.6427C10.1542 5.71812 10.1866 5.82041 10.1866 5.92707C10.1866 6.03373 10.1542 6.13603 10.0966 6.21145C10.039 6.28687 9.96083 6.32924 9.87936 6.32924Z" fill="white" stroke="white" stroke-linecap="round" stroke-linejoin="round"/>
<path d="M7.96518 10.6336H5.03271C4.97715 10.6336 4.92387 10.5912 4.88459 10.5158C4.84531 10.4404 4.82324 10.3381 4.82324 10.2314C4.82324 10.1248 4.84531 10.0225 4.88459 9.94705C4.92387 9.87163 4.97715 9.82925 5.03271 9.82925H7.96518C8.02074 9.82925 8.07402 9.87163 8.1133 9.94705C8.15258 10.0225 8.17465 10.1248 8.17465 10.2314C8.17465 10.3381 8.15258 10.4404 8.1133 10.5158C8.07402 10.5912 8.02074 10.6336 7.96518 10.6336Z" fill="white" stroke="white" stroke-linecap="round" stroke-linejoin="round"/>
</g>
<defs>
<clipPath id="clip0_306_28756">
<rect width="13" height="11" fill="white" transform="translate(0 0.5)"/>
</clipPath>
</defs>
</svg>
