<svg width="12" height="12" viewBox="0 0 12 12" fill="none" xmlns="http://www.w3.org/2000/svg">
<path d="M11.78 10.7226L9.45744 8.39907C11.1953 6.07668 10.7214 2.78518 8.39905 1.04732C6.07667 -0.69054 2.78517 -0.216682 1.04731 2.1057C-0.690552 4.42809 -0.216694 7.71959 2.10569 9.45745C3.97123 10.8534 6.5335 10.8534 8.39905 9.45745L10.7226 11.781C11.0146 12.073 11.488 12.073 11.78 11.781C12.072 11.489 12.072 11.0156 11.78 10.7236L11.78 10.7226ZM5.27174 9.00898C3.20771 9.00898 1.5345 7.33578 1.5345 5.27175C1.5345 3.20772 3.20771 1.53452 5.27174 1.53452C7.33576 1.53452 9.00897 3.20772 9.00897 5.27175C9.00678 7.33484 7.33485 9.00679 5.27174 9.00898Z" fill="#04151F"/>
</svg>
