<svg width="42" height="42" viewBox="0 0 42 42" fill="none" xmlns="http://www.w3.org/2000/svg">
<rect x="1" y="1" width="40" height="40" rx="8" stroke="#ED3E3E" stroke-width="1.5"/>
<g clip-path="url(#clip0_213_28568)">
<path d="M24.3338 15.762H17.6671C17.0358 15.7627 16.4307 16.0138 15.9843 16.4602C15.538 16.9065 15.2869 17.5117 15.2861 18.1429V23.8572C15.2869 24.4884 15.538 25.0936 15.9843 25.54C16.4307 25.9863 17.0358 26.2374 17.6671 26.2382H24.3338C24.965 26.2374 25.5702 25.9863 26.0165 25.54C26.4629 25.0936 26.7139 24.4884 26.7147 23.8572V18.1429C26.7139 17.5117 26.4629 16.9065 26.0165 16.4602C25.5702 16.0138 24.965 15.7627 24.3338 15.762ZM17.6671 16.7143H24.3338C24.6189 16.7149 24.8973 16.8008 25.1333 16.9609C25.3692 17.1211 25.5518 17.3481 25.6576 17.6129L22.0109 21.2601C21.7425 21.5274 21.3792 21.6774 21.0004 21.6774C20.6216 21.6774 20.2583 21.5274 19.9899 21.2601L16.3433 17.6129C16.4491 17.3481 16.6317 17.1211 16.8676 16.9609C17.1035 16.8008 17.3819 16.7149 17.6671 16.7143ZM24.3338 25.2858H17.6671C17.2882 25.2858 16.9248 25.1353 16.6569 24.8674C16.389 24.5994 16.2385 24.2361 16.2385 23.8572V18.8572L19.3166 21.9334C19.7636 22.3792 20.3691 22.6296 21.0004 22.6296C21.6317 22.6296 22.2373 22.3792 22.6842 21.9334L25.7623 18.8572V23.8572C25.7623 24.2361 25.6118 24.5994 25.3439 24.8674C25.076 25.1353 24.7126 25.2858 24.3338 25.2858Z" fill="#ED3E3E"/>
</g>
<defs>
<clipPath id="clip0_213_28568">
<rect width="11.4286" height="11.4286" fill="white" transform="translate(15.2861 15.2858)"/>
</clipPath>
</defs>
</svg>
