<svg width="16" height="17" viewBox="0 0 16 17" fill="none" xmlns="http://www.w3.org/2000/svg">
<g clip-path="url(#clip0_454_36324)">
<rect width="16" height="16" transform="translate(0 0.5)" fill="white"/>
<path d="M8.00016 4.5C7.47275 4.5 6.95717 4.6564 6.51864 4.94941C6.08011 5.24243 5.73832 5.65891 5.53649 6.14618C5.33465 6.63345 5.28184 7.16962 5.38474 7.68691C5.48763 8.20419 5.74161 8.67935 6.11455 9.05229C6.48749 9.42523 6.96264 9.6792 7.47992 9.78209C7.99721 9.88499 8.53338 9.83218 9.02065 9.63035C9.50792 9.42851 9.9244 9.08672 10.2174 8.64819C10.5104 8.20966 10.6668 7.69408 10.6668 7.16667C10.6668 6.45942 10.3859 5.78115 9.88578 5.28105C9.38569 4.78095 8.70741 4.5 8.00016 4.5ZM8.00016 8.5C7.73646 8.5 7.47867 8.4218 7.2594 8.27529C7.04014 8.12878 6.86924 7.92055 6.76832 7.67691C6.66741 7.43328 6.641 7.16519 6.69245 6.90655C6.7439 6.64791 6.87089 6.41033 7.05736 6.22386C7.24383 6.03739 7.4814 5.9104 7.74004 5.85895C7.99868 5.80751 8.26677 5.83391 8.51041 5.93483C8.75404 6.03574 8.96228 6.20664 9.10879 6.42591C9.2553 6.64517 9.3335 6.90296 9.3335 7.16667C9.3335 7.52029 9.19302 7.85943 8.94297 8.10948C8.69292 8.35952 8.35379 8.5 8.00016 8.5Z" fill="#04151F"/>
<path d="M8.00021 16.4999C7.43884 16.5027 6.88495 16.3711 6.38492 16.1159C5.88489 15.8607 5.45327 15.4895 5.12621 15.0332C2.58554 11.5285 1.29688 8.89387 1.29688 7.20187C1.29688 5.42403 2.00312 3.71901 3.26024 2.4619C4.51735 1.20478 6.22237 0.498535 8.00021 0.498535C9.77804 0.498535 11.4831 1.20478 12.7402 2.4619C13.9973 3.71901 14.7035 5.42403 14.7035 7.20187C14.7035 8.89387 13.4149 11.5285 10.8742 15.0332C10.5471 15.4895 10.1155 15.8607 9.6155 16.1159C9.11547 16.3711 8.56158 16.5027 8.00021 16.4999ZM8.00021 1.95387C6.60849 1.95546 5.27422 2.50902 4.29012 3.49312C3.30603 4.47721 2.75246 5.81148 2.75087 7.2032C2.75087 8.5432 4.01287 11.0212 6.30354 14.1805C6.498 14.4484 6.75312 14.6664 7.04802 14.8167C7.34291 14.967 7.66921 15.0454 8.00021 15.0454C8.33121 15.0454 8.6575 14.967 8.9524 14.8167C9.24729 14.6664 9.50241 14.4484 9.69687 14.1805C11.9875 11.0212 13.2495 8.5432 13.2495 7.2032C13.248 5.81148 12.6944 4.47721 11.7103 3.49312C10.7262 2.50902 9.39193 1.95546 8.00021 1.95387Z" fill="#04151F"/>
</g>
<defs>
<clipPath id="clip0_454_36324">
<rect width="16" height="16" fill="white" transform="translate(0 0.5)"/>
</clipPath>
</defs>
</svg>
