<svg width="16" height="17" viewBox="0 0 16 17" fill="none" xmlns="http://www.w3.org/2000/svg">
<g clip-path="url(#clip0_454_36157)">
<path d="M8.6665 1.16675C8.6665 0.989944 8.73673 0.820375 8.86176 0.69535C8.98678 0.570326 9.15635 0.500088 9.33316 0.500088C11.1007 0.502029 12.7952 1.20503 14.0451 2.45485C15.2949 3.70468 15.9979 5.39924 15.9998 7.16676C15.9998 7.34357 15.9296 7.51314 15.8046 7.63816C15.6795 7.76318 15.51 7.83342 15.3332 7.83342C15.1564 7.83342 14.9868 7.76318 14.8618 7.63816C14.7367 7.51314 14.6665 7.34357 14.6665 7.16676C14.6649 5.75276 14.1025 4.39712 13.1026 3.39727C12.1028 2.39742 10.7472 1.83501 9.33316 1.83342C9.15635 1.83342 8.98678 1.76318 8.86176 1.63816C8.73673 1.51314 8.6665 1.34357 8.6665 1.16675ZM9.33316 4.50009C10.0404 4.50009 10.7187 4.78104 11.2188 5.28114C11.7189 5.78123 11.9998 6.45951 11.9998 7.16676C11.9998 7.34357 12.0701 7.51314 12.1951 7.63816C12.3201 7.76318 12.4897 7.83342 12.6665 7.83342C12.8433 7.83342 13.0129 7.76318 13.1379 7.63816C13.2629 7.51314 13.3332 7.34357 13.3332 7.16676C13.3321 6.10621 12.9103 5.08941 12.1604 4.3395C11.4105 3.58958 10.3937 3.16781 9.33316 3.16675C9.15635 3.16675 8.98678 3.23699 8.86176 3.36202C8.73673 3.48704 8.6665 3.65661 8.6665 3.83342C8.6665 4.01023 8.73673 4.1798 8.86176 4.30483C8.98678 4.42985 9.15635 4.50009 9.33316 4.50009ZM15.3952 11.6594C15.7815 12.0468 15.9985 12.5716 15.9985 13.1188C15.9985 13.6659 15.7815 14.1907 15.3952 14.5781L14.7885 15.2774C9.3285 20.5048 -3.95817 7.22142 1.18849 1.74409L1.95516 1.07742C2.34301 0.701873 2.86312 0.494121 3.40296 0.499111C3.94281 0.504102 4.45899 0.721434 4.83983 1.10409C4.8605 1.12475 6.09583 2.72942 6.09583 2.72942C6.46238 3.11451 6.66643 3.62604 6.66556 4.15769C6.66469 4.68934 6.45897 5.2002 6.09116 5.58409L5.31916 6.55476C5.74639 7.59283 6.37454 8.53625 7.1675 9.33082C7.96046 10.1254 8.90262 10.7554 9.93983 11.1848L10.9165 10.4081C11.3004 10.0406 11.8112 9.83509 12.3427 9.83434C12.8742 9.8336 13.3855 10.0376 13.7705 10.4041C13.7705 10.4041 15.3745 11.6388 15.3952 11.6594ZM14.4778 12.6288C14.4778 12.6288 12.8825 11.4014 12.8618 11.3808C12.7245 11.2446 12.5389 11.1682 12.3455 11.1682C12.1521 11.1682 11.9665 11.2446 11.8292 11.3808C11.8112 11.3994 10.4665 12.4708 10.4665 12.4708C10.3759 12.5429 10.268 12.5902 10.1536 12.6079C10.0391 12.6257 9.92205 12.6133 9.81383 12.5721C8.47013 12.0718 7.24965 11.2886 6.23505 10.2755C5.22045 9.26237 4.43543 8.04304 3.93316 6.70009C3.88863 6.59039 3.87411 6.47081 3.8911 6.35365C3.90809 6.23648 3.95597 6.12595 4.02983 6.03342C4.02983 6.03342 5.10116 4.68809 5.11916 4.67076C5.25534 4.53341 5.33175 4.34783 5.33175 4.15442C5.33175 3.96101 5.25534 3.77543 5.11916 3.63809C5.0985 3.61809 3.87116 2.02142 3.87116 2.02142C3.73176 1.89643 3.54983 1.82949 3.36266 1.83432C3.17549 1.83915 2.99726 1.9154 2.86449 2.04742L2.09783 2.71409C-1.66351 7.23676 9.8505 18.1121 13.8138 14.3668L14.4212 13.6668C14.5635 13.5349 14.649 13.3529 14.6595 13.1592C14.6701 12.9655 14.605 12.7753 14.4778 12.6288Z" fill="#04151F"/>
</g>
<defs>
<clipPath id="clip0_454_36157">
<rect width="16" height="16" fill="white" transform="translate(0 0.5)"/>
</clipPath>
</defs>
</svg>
