<svg width="43" height="42" viewBox="0 0 43 42" fill="none" xmlns="http://www.w3.org/2000/svg">
<rect x="1.5" y="1" width="40" height="40" rx="8" stroke="#ED3E3E" stroke-width="1.5"/>
<g clip-path="url(#clip0_213_28561)">
<path d="M21.9766 15.762C21.9766 15.6357 22.0267 15.5146 22.116 15.4253C22.2053 15.336 22.3265 15.2858 22.4527 15.2858C23.7153 15.2872 24.9257 15.7893 25.8184 16.6821C26.7111 17.5748 27.2133 18.7852 27.2147 20.0477C27.2147 20.174 27.1645 20.2951 27.0752 20.3844C26.9859 20.4737 26.8648 20.5239 26.7385 20.5239C26.6122 20.5239 26.491 20.4737 26.4017 20.3844C26.3124 20.2951 26.2623 20.174 26.2623 20.0477C26.2611 19.0377 25.8594 18.0694 25.1452 17.3552C24.4311 16.641 23.4627 16.2393 22.4527 16.2382C22.3265 16.2382 22.2053 16.188 22.116 16.0987C22.0267 16.0094 21.9766 15.8883 21.9766 15.762V15.762ZM22.4527 18.1429C22.9579 18.1429 23.4424 18.3436 23.7996 18.7008C24.1568 19.058 24.3575 19.5425 24.3575 20.0477C24.3575 20.174 24.4077 20.2951 24.497 20.3844C24.5863 20.4737 24.7074 20.5239 24.8337 20.5239C24.96 20.5239 25.0811 20.4737 25.1704 20.3844C25.2597 20.2951 25.3099 20.174 25.3099 20.0477C25.3091 19.2902 25.0079 18.5639 24.4722 18.0282C23.9366 17.4926 23.2103 17.1913 22.4527 17.1906C22.3265 17.1906 22.2053 17.2407 22.116 17.33C22.0267 17.4193 21.9766 17.5405 21.9766 17.6667C21.9766 17.793 22.0267 17.9142 22.116 18.0035C22.2053 18.0928 22.3265 18.1429 22.4527 18.1429V18.1429ZM26.7827 23.2567C27.0587 23.5335 27.2137 23.9083 27.2137 24.2991C27.2137 24.6899 27.0587 25.0648 26.7827 25.3415L26.3494 25.841C22.4494 29.5748 12.9589 20.0867 16.6351 16.1744L17.1827 15.6982C17.4598 15.4299 17.8313 15.2815 18.2169 15.2851C18.6025 15.2887 18.9712 15.4439 19.2432 15.7172C19.258 15.732 20.1404 16.8782 20.1404 16.8782C20.4022 17.1532 20.5479 17.5186 20.5473 17.8984C20.5467 18.2781 20.3998 18.643 20.137 18.9172L19.5856 19.6106C19.8908 20.352 20.3394 21.0259 20.9058 21.5935C21.4722 22.161 22.1452 22.611 22.8861 22.9177L23.5837 22.3629C23.8579 22.1004 24.2228 21.9536 24.6024 21.9531C24.982 21.9526 25.3473 22.0983 25.6223 22.3601C25.6223 22.3601 26.768 23.242 26.7827 23.2567ZM26.1275 23.9491C26.1275 23.9491 24.988 23.0725 24.9732 23.0577C24.8751 22.9604 24.7426 22.9059 24.6044 22.9059C24.4663 22.9059 24.3337 22.9604 24.2356 23.0577C24.2227 23.071 23.2623 23.8363 23.2623 23.8363C23.1975 23.8878 23.1205 23.9216 23.0388 23.9343C22.957 23.9469 22.8734 23.9381 22.7961 23.9087C21.8363 23.5513 20.9645 22.9919 20.2398 22.2682C19.5151 21.5446 18.9544 20.6736 18.5956 19.7144C18.5638 19.636 18.5534 19.5506 18.5656 19.4669C18.5777 19.3832 18.6119 19.3043 18.6647 19.2382C18.6647 19.2382 19.4299 18.2772 19.4427 18.2648C19.54 18.1667 19.5946 18.0342 19.5946 17.896C19.5946 17.7579 19.54 17.6253 19.4427 17.5272C19.428 17.5129 18.5513 16.3725 18.5513 16.3725C18.4517 16.2832 18.3218 16.2354 18.1881 16.2388C18.0544 16.2423 17.9271 16.2967 17.8323 16.391L17.2847 16.8672C14.598 20.0977 22.8223 27.8658 25.6532 25.1906L26.087 24.6906C26.1887 24.5964 26.2497 24.4664 26.2573 24.328C26.2649 24.1897 26.2183 24.0538 26.1275 23.9491V23.9491Z" fill="#ED3E3E"/>
</g>
<defs>
<clipPath id="clip0_213_28561">
<rect width="11.4286" height="11.4286" fill="white" transform="translate(15.7861 15.2858)"/>
</clipPath>
</defs>
</svg>
