<svg width="39" height="49" viewBox="0 0 39 49" fill="none" xmlns="http://www.w3.org/2000/svg">
<path d="M25.9294 0.777222C25.7093 0.54541 25.4075 0.40625 25.0948 0.40625H6.37001C2.9148 0.40625 0.0627441 3.24695 0.0627441 6.70179V42.1104C0.0627441 45.5656 2.9148 48.4063 6.37001 48.4063H31.7844C35.2396 48.4063 38.0916 45.5656 38.0916 42.1104V13.9945C38.0916 13.6931 37.9525 13.4035 37.7554 13.183L25.9294 0.777222ZM26.2656 4.49903L34.1845 12.812H29.0367C27.5063 12.812 26.2656 11.583 26.2656 10.0526V4.49903ZM31.7844 46.0875H6.37001C4.20203 46.0875 2.3816 44.2905 2.3816 42.1104V6.70179C2.3816 4.53382 4.19032 2.7251 6.37001 2.7251H23.9467V10.0526C23.9467 12.8699 26.2194 15.1309 29.0367 15.1309H35.7728V42.1104C35.7728 44.2905 33.9641 46.0875 31.7844 46.0875Z" fill="#04151F"/>
<path d="M28.6187 38.0874H9.53467C8.8971 38.0874 8.37524 38.6089 8.37524 39.2468C8.37524 39.8844 8.8971 40.4063 9.53467 40.4063H28.6304C29.268 40.4063 29.7898 39.8844 29.7898 39.2468C29.7898 38.6089 29.268 38.0874 28.6187 38.0874Z" fill="#04151F"/>
<path d="M13.1402 25.6122L17.9171 20.4757V33.1368C17.9171 33.7743 18.439 34.2962 19.0765 34.2962C19.7145 34.2962 20.2359 33.7743 20.2359 33.1368V20.4757L25.0128 25.6122C25.2446 25.8554 25.5464 25.9832 25.8591 25.9832C26.1374 25.9832 26.4275 25.8788 26.6476 25.6701C27.1116 25.2295 27.1463 24.4989 26.7058 24.0353L19.9115 16.7426C19.691 16.5107 19.3896 16.3716 19.0652 16.3716C18.7403 16.3716 18.439 16.5107 18.2189 16.7426L11.4245 24.0353C10.984 24.4989 11.0188 25.2409 11.4824 25.6701C11.9695 26.1106 12.6997 26.0758 13.1402 25.6122Z" fill="#04151F"/>
</svg>
