<svg width="64" height="65" viewBox="0 0 64 65" fill="none" xmlns="http://www.w3.org/2000/svg">
<g clip-path="url(#clip0_472_36525)">
<path d="M31.9998 2.33508C15.3403 2.33508 1.83496 15.8405 1.83496 32.5C1.83496 49.1595 15.3403 62.6647 31.9998 62.6647C48.6593 62.6647 62.1647 49.1593 62.1647 32.4998C62.1647 15.8403 48.6595 2.33508 31.9998 2.33508ZM31.9998 52.7298C20.845 52.7298 11.7701 43.6547 11.7701 32.4998C11.7701 27.9275 13.2951 23.7042 15.863 20.3125L23.7567 14.0262C26.2757 12.8978 29.066 12.2701 31.9998 12.2701C43.1547 12.2701 52.2296 21.3452 52.2296 32.4998C52.2296 43.6545 43.1547 52.7298 31.9998 52.7298Z" fill="#FCE0E0"/>
<path d="M32.0009 64.5C14.3561 64.5 0.000976562 50.1449 0.000976562 32.5001C0.000976562 14.8551 14.3561 0.5 32.0009 0.5C49.6456 0.5 64.0007 14.8551 64.0007 32.5001C64.001 50.1449 49.6457 64.5 32.0009 64.5ZM32.0009 4.17013C16.3799 4.17013 3.6711 16.8789 3.6711 32.5001C3.6711 48.1211 16.3799 60.8299 32.0009 60.8299C47.6218 60.8299 60.3306 48.1211 60.3306 32.5001C60.3309 16.8789 47.6221 4.17013 32.0009 4.17013Z" fill="#ED3E3E"/>
<path d="M32.0001 54.5651C19.8334 54.5651 9.93506 44.6669 9.93506 32.5002C9.93506 27.6604 11.4791 23.0628 14.4002 19.2051C15.0119 18.3971 16.1629 18.2382 16.9709 18.8496C17.7789 19.4613 17.9381 20.6123 17.3262 21.4203C14.8919 24.6353 13.6052 28.4666 13.6052 32.5001C13.6052 42.6428 21.8571 50.8948 32.0001 50.8948C42.1431 50.8948 50.3949 42.6429 50.3949 32.5001C50.3949 22.3571 42.1431 14.1052 32.0001 14.1052C29.3922 14.1052 26.8712 14.6422 24.5071 15.7012C23.5814 16.1157 22.4964 15.7013 22.0822 14.7767C21.6678 13.8518 22.0818 12.7662 23.0067 12.3518C25.8459 11.0799 28.8716 10.4351 32.0002 10.4351C44.1668 10.4351 54.0652 20.3334 54.0652 32.5001C54.0652 44.6667 44.1667 54.5651 32.0001 54.5651Z" fill="#ED3E3E"/>
<path d="M31.6426 41.5513C28.5888 41.4494 26.0952 39.8718 26.0952 38.2432C26.0952 37.3779 26.8586 36.1057 27.8257 36.1057C28.8945 36.1057 29.7597 37.6072 31.6428 37.9378V33.8153C29.3017 32.9246 26.5535 31.8306 26.5535 28.5733C26.5535 25.3416 28.9455 23.7893 31.6428 23.4076V22.6951C31.6428 22.3388 32.0501 22.0081 32.61 22.0081C33.0935 22.0081 33.5771 22.3389 33.5771 22.6951V23.3313C35.1548 23.3822 38.1321 23.7893 38.1321 25.5452C38.1321 26.2322 37.6741 27.6318 36.5543 27.6318C35.7146 27.6318 35.2311 26.8174 33.577 26.6902V30.4054C35.8926 31.2707 38.59 32.4666 38.59 35.9021C38.59 39.0574 36.5541 40.9661 33.577 41.4494V42.1873C33.577 42.5434 33.0935 42.8743 32.6098 42.8743C32.05 42.8743 31.6427 42.5434 31.6427 42.1873V41.5513H31.6426ZM31.8968 29.7947V26.7664C30.7517 26.9954 30.2682 27.5808 30.2682 28.1916C30.2682 28.9294 30.93 29.3876 31.8968 29.7947ZM33.322 34.5024V37.9123C34.1872 37.7088 34.8742 37.2253 34.8742 36.3092C34.8743 35.4694 34.2381 34.9349 33.322 34.5024Z" fill="#ED3E3E"/>
</g>
<defs>
<clipPath id="clip0_472_36525">
<rect width="64" height="64" fill="white" transform="translate(0 0.5)"/>
</clipPath>
</defs>
</svg>
