<svg width="64" height="65" viewBox="0 0 64 65" fill="none" xmlns="http://www.w3.org/2000/svg">
<g clip-path="url(#clip0_472_36531)">
<path d="M47.5613 26.8807C42.58 26.8807 38.5273 22.8281 38.5273 17.8466C38.5273 12.8652 42.58 8.81262 47.5613 8.81262C52.5428 8.81262 56.5955 12.8652 56.5955 17.8466C56.5955 18.8682 55.767 19.6967 54.7453 19.6967C53.7237 19.6967 52.8952 18.8682 52.8952 17.8466C52.8952 14.9056 50.5023 12.513 47.5613 12.513C44.6203 12.513 42.2277 14.9057 42.2277 17.8466C42.2277 20.7876 44.6205 23.1805 47.5613 23.1805C48.583 23.1805 49.4115 24.009 49.4115 25.0306C49.4115 26.0522 48.5831 26.8807 47.5613 26.8807Z" fill="#ED3E3E"/>
<path d="M50.4354 60.2669H46.5468C43.4963 60.2669 40.9427 57.9806 40.6071 54.9486L38.6592 37.3669C38.6013 36.8439 38.7687 36.321 39.1197 35.9291C39.4704 35.5371 39.9718 35.313 40.4981 35.313H54.6248C55.6464 35.313 56.4749 36.1415 56.4749 37.1631C56.4749 38.1847 55.6464 39.0132 54.6248 39.0132H42.5646L44.2851 54.5412C44.4127 55.6959 45.3852 56.5666 46.5471 56.5666H50.4357C51.4573 56.5666 52.2858 57.3951 52.2858 58.4167C52.2858 59.4384 51.4572 60.2669 50.4354 60.2669Z" fill="#ED3E3E"/>
<path d="M56.0627 45.0927H39.0601V28.7512C39.0601 26.6525 40.7614 24.9512 42.8601 24.9512H52.2628C54.3614 24.9512 56.0628 26.6525 56.0628 28.7512V45.0927H56.0627Z" fill="#FCE0E0"/>
<path d="M56.0627 46.9428H39.0601C38.0385 46.9428 37.21 46.1143 37.21 45.0927V28.7512C37.21 25.6357 39.7447 23.101 42.8602 23.101H52.2627C55.3782 23.101 57.913 25.6357 57.913 28.7512V45.0927C57.9128 46.1146 57.0843 46.9428 56.0627 46.9428ZM40.9101 43.2426H54.2123V28.7512C54.2123 27.676 53.3376 26.8013 52.2625 26.8013H42.86C41.7846 26.8013 40.9101 27.6761 40.9101 28.7512V43.2426Z" fill="#ED3E3E"/>
<path d="M19.313 60.2667H15.4244C12.374 60.2667 9.82037 57.9805 9.48437 54.9486L7.53662 37.3667C7.47875 36.8437 7.64637 36.3209 7.99712 35.9287C8.34812 35.5369 8.84925 35.3129 9.3755 35.3129H23.5022C24.5239 35.3129 25.3524 36.1414 25.3524 37.163C25.3524 38.1846 24.5239 39.0131 23.5022 39.0131H11.442L13.1622 54.5414C13.2901 55.6959 14.2625 56.5666 15.4245 56.5666H19.3131C20.3347 56.5666 21.1632 57.3951 21.1632 58.4167C21.1632 59.4384 20.3346 60.2667 19.313 60.2667Z" fill="#ED3E3E"/>
<path d="M24.9404 45.0927H7.9375V28.7512C7.9375 26.6525 9.63888 24.9512 11.7375 24.9512H21.1402C23.2389 24.9512 24.9403 26.6525 24.9403 28.7512V45.0927H24.9404Z" fill="#FCE0E0"/>
<path d="M24.9404 46.943H7.93753C6.9159 46.943 6.0874 46.1145 6.0874 45.0928V28.7513C6.0874 25.6358 8.62215 23.1011 11.7377 23.1011H21.1402C24.2557 23.1011 26.7904 25.6358 26.7904 28.7513V45.0928C26.7905 46.1147 25.962 46.943 24.9404 46.943ZM9.78778 43.2427H23.09V28.7513C23.09 27.6761 22.2153 26.8015 21.1402 26.8015H11.7377C10.6623 26.8015 9.78778 27.6762 9.78778 28.7513V43.2427Z" fill="#ED3E3E"/>
<path d="M16.4389 26.8807C11.4574 26.8807 7.40479 22.8281 7.40479 17.8466C7.40479 12.8652 11.4574 8.81262 16.4389 8.81262C21.4203 8.81262 25.4729 12.8652 25.4729 17.8466C25.4729 22.8281 21.4202 26.8807 16.4389 26.8807ZM16.4389 12.5129C13.4979 12.5129 11.105 14.9056 11.105 17.8465C11.105 20.7875 13.4979 23.1804 16.4389 23.1804C19.3799 23.1804 21.7725 20.7875 21.7725 17.8465C21.7725 14.9055 19.3798 12.5129 16.4389 12.5129Z" fill="#ED3E3E"/>
<path d="M35.8048 64.4999H30.0549C26.6658 64.4999 23.8288 61.9598 23.4556 58.5913L20.8106 34.7176C20.7527 34.1946 20.9201 33.6717 21.2711 33.2798C21.6218 32.8878 22.1232 32.6637 22.6494 32.6637H41.3504C42.3721 32.6637 43.2006 33.4922 43.2006 34.5138C43.2006 35.5354 42.3721 36.3639 41.3504 36.3639H24.7159L27.1333 58.1839C27.2986 59.6753 28.5544 60.7997 30.0547 60.7997H35.8046C36.8262 60.7997 37.6547 61.6282 37.6547 62.6498C37.6547 63.6714 36.8267 64.4999 35.8048 64.4999Z" fill="#ED3E3E"/>
<path d="M43.2543 45.0716H20.7461V26.073C20.7461 23.2947 22.9983 21.0424 25.7767 21.0424H38.2241C41.0023 21.0424 43.2547 23.2946 43.2547 26.073V45.0715H43.2543V45.0716Z" fill="#FCE0E0"/>
<path d="M43.2539 46.9216H20.7456C19.724 46.9216 18.8955 46.0931 18.8955 45.0715V26.0729C18.8955 22.2789 21.9823 19.1924 25.776 19.1924H38.2234C42.0174 19.1924 45.1039 22.2791 45.1039 26.0729V45.0716C45.1041 46.0934 44.2758 46.9216 43.2539 46.9216ZM22.5958 43.2213H41.4038V26.0729C41.4038 24.3191 39.9771 22.8926 38.2235 22.8926H25.7761C24.0224 22.8926 22.5959 24.3193 22.5959 26.0729V43.2213H22.5958Z" fill="#ED3E3E"/>
<path d="M31.9998 22.7741C25.8589 22.7741 20.8628 17.778 20.8628 11.6371C20.8628 5.49625 25.8589 0.5 31.9998 0.5C38.1407 0.5 43.1368 5.496 43.1368 11.6369C43.1368 17.7778 38.1407 22.7741 31.9998 22.7741ZM31.9998 4.20038C27.899 4.20038 24.563 7.53638 24.563 11.6369C24.563 15.7376 27.899 19.0736 31.9998 19.0736C36.1005 19.0736 39.4365 15.7376 39.4365 11.6369C39.4365 7.53638 36.1005 4.20038 31.9998 4.20038Z" fill="#ED3E3E"/>
</g>
<defs>
<clipPath id="clip0_472_36531">
<rect width="64" height="64" fill="white" transform="translate(0 0.5)"/>
</clipPath>
</defs>
</svg>
