<svg width="1440" height="445" viewBox="0 0 1440 445" fill="none" xmlns="http://www.w3.org/2000/svg">
<g opacity="0.1">
<g clip-path="url(#clip0_282_30943)">
<path d="M264.27 248.29H362.07" stroke="#FCE0E0" stroke-width="2" stroke-linecap="round" stroke-linejoin="round"/>
<path d="M323.65 270.61H386.66" stroke="#FCE0E0" stroke-width="2" stroke-linecap="round" stroke-linejoin="round"/>
<path d="M655.75 248.29H718.77" stroke="#FCE0E0" stroke-width="2" stroke-linecap="round" stroke-linejoin="round"/>
<path d="M627.44 277.99H690.46" stroke="#FCE0E0" stroke-width="2" stroke-linecap="round" stroke-linejoin="round"/>
<path d="M646.98 357.14H674.7" stroke="#FCE0E0" stroke-width="2" stroke-linecap="round" stroke-linejoin="round"/>
<path d="M660.84 343.28V371" stroke="#FCE0E0" stroke-width="2" stroke-linecap="round" stroke-linejoin="round"/>
<path d="M489.26 242.9H516.98" stroke="#FCE0E0" stroke-width="2" stroke-linecap="round" stroke-linejoin="round"/>
<path d="M503.12 229.04V256.76" stroke="#FCE0E0" stroke-width="2" stroke-linecap="round" stroke-linejoin="round"/>
<path d="M137.63 256.76H165.35" stroke="#FCE0E0" stroke-width="2" stroke-linecap="round" stroke-linejoin="round"/>
<path d="M151.49 242.9V270.62" stroke="#FCE0E0" stroke-width="2" stroke-linecap="round" stroke-linejoin="round"/>
<path d="M8.6499 243.74H36.3599" stroke="#FCE0E0" stroke-width="2" stroke-linecap="round" stroke-linejoin="round"/>
<path d="M22.5 229.88V257.6" stroke="#FCE0E0" stroke-width="2" stroke-linecap="round" stroke-linejoin="round"/>
<path d="M387.56 168.44H415.28" stroke="#FCE0E0" stroke-width="2" stroke-linecap="round" stroke-linejoin="round"/>
<path d="M401.42 154.58V182.3" stroke="#FCE0E0" stroke-width="2" stroke-linecap="round" stroke-linejoin="round"/>
<path d="M370.17 363.14L353.15 351.14L336.14 363.14L319.12 351.14L302.1 363.14L285.08 351.14L268.06 363.14" stroke="#FCE0E0" stroke-width="2" stroke-linecap="round" stroke-linejoin="round"/>
<path d="M627.44 180.44L610.43 168.44L593.41 180.44L576.4 168.44L559.38 180.44L542.36 168.44L525.34 180.44" stroke="#FCE0E0" stroke-width="2" stroke-linecap="round" stroke-linejoin="round"/>
<path d="M88.2201 172.09L71.2101 160.09L54.1901 172.09L37.1801 160.09L20.1601 172.09L3.14012 160.09L-13.8799 172.09" stroke="#FCE0E0" stroke-width="2" stroke-linecap="round" stroke-linejoin="round"/>
<path d="M364.22 57.31L347.21 45.31L330.19 57.31L313.18 45.31L296.16 57.31L279.14 45.31L262.12 57.31" stroke="#FCE0E0" stroke-width="2" stroke-linecap="round" stroke-linejoin="round"/>
<path d="M478.6 395.73H576.39" stroke="#FCE0E0" stroke-width="2" stroke-linecap="round" stroke-linejoin="round"/>
<path d="M537.97 418.05H600.99" stroke="#FCE0E0" stroke-width="2" stroke-linecap="round" stroke-linejoin="round"/>
<path d="M349.93 445.2H377.65" stroke="#FCE0E0" stroke-width="2" stroke-linecap="round" stroke-linejoin="round"/>
<path d="M363.79 431.34V459.06" stroke="#FCE0E0" stroke-width="2" stroke-linecap="round" stroke-linejoin="round"/>
<path d="M226.01 396.36H253.73" stroke="#FCE0E0" stroke-width="2" stroke-linecap="round" stroke-linejoin="round"/>
<path d="M239.87 382.5V410.22" stroke="#FCE0E0" stroke-width="2" stroke-linecap="round" stroke-linejoin="round"/>
<path d="M63.7 95.93H161.49" stroke="#FCE0E0" stroke-width="2" stroke-linecap="round" stroke-linejoin="round"/>
<path d="M123.07 118.25H186.09" stroke="#FCE0E0" stroke-width="2" stroke-linecap="round" stroke-linejoin="round"/>
<path d="M105.04 312.54H170.84" stroke="#FCE0E0" stroke-width="2" stroke-linecap="round" stroke-linejoin="round"/>
<path d="M595.27 1H693.06" stroke="#FCE0E0" stroke-width="2" stroke-linecap="round" stroke-linejoin="round"/>
<path d="M654.64 23.32H717.66" stroke="#FCE0E0" stroke-width="2" stroke-linecap="round" stroke-linejoin="round"/>
<path d="M447.87 51.31H475.59" stroke="#FCE0E0" stroke-width="2" stroke-linecap="round" stroke-linejoin="round"/>
<path d="M461.73 37.45V65.17" stroke="#FCE0E0" stroke-width="2" stroke-linecap="round" stroke-linejoin="round"/>
<path d="M415.28 107.09H481.08" stroke="#FCE0E0" stroke-width="2" stroke-linecap="round" stroke-linejoin="round"/>
<path d="M251.25 256.89H349.04" stroke="#04151F" stroke-width="2" stroke-linecap="round" stroke-linejoin="round"/>
<path d="M310.62 279.2H373.64" stroke="#04151F" stroke-width="2" stroke-linecap="round" stroke-linejoin="round"/>
<path d="M642.72 256.89H705.74" stroke="#04151F" stroke-width="2" stroke-linecap="round" stroke-linejoin="round"/>
<path d="M614.42 286.59H677.44" stroke="#04151F" stroke-width="2" stroke-linecap="round" stroke-linejoin="round"/>
<path d="M633.96 365.74H661.67" stroke="#04151F" stroke-width="2" stroke-linecap="round" stroke-linejoin="round"/>
<path d="M647.82 351.88V379.59" stroke="#04151F" stroke-width="2" stroke-linecap="round" stroke-linejoin="round"/>
<path d="M476.24 251.5H503.96" stroke="#04151F" stroke-width="2" stroke-linecap="round" stroke-linejoin="round"/>
<path d="M490.1 237.64V265.36" stroke="#04151F" stroke-width="2" stroke-linecap="round" stroke-linejoin="round"/>
<path d="M124.61 265.36H152.32" stroke="#04151F" stroke-width="2" stroke-linecap="round" stroke-linejoin="round"/>
<path d="M138.47 251.5V279.21" stroke="#04151F" stroke-width="2" stroke-linecap="round" stroke-linejoin="round"/>
<path d="M-4.37988 252.34H23.3401" stroke="#04151F" stroke-width="2" stroke-linecap="round" stroke-linejoin="round"/>
<path d="M9.47998 238.48V266.2" stroke="#04151F" stroke-width="2" stroke-linecap="round" stroke-linejoin="round"/>
<path d="M374.54 177.04H402.26" stroke="#04151F" stroke-width="2" stroke-linecap="round" stroke-linejoin="round"/>
<path d="M388.4 163.18V190.9" stroke="#04151F" stroke-width="2" stroke-linecap="round" stroke-linejoin="round"/>
<path d="M357.14 371.74L340.13 359.74L323.12 371.74L306.1 359.74L289.08 371.74L272.06 359.74L255.04 371.74" stroke="#04151F" stroke-width="2" stroke-linecap="round" stroke-linejoin="round"/>
<path d="M614.42 189.04L597.4 177.04L580.39 189.04L563.38 177.04L546.36 189.04L529.34 177.04L512.32 189.04" stroke="#04151F" stroke-width="2" stroke-linecap="round" stroke-linejoin="round"/>
<path d="M75.1998 180.69L58.1798 168.69L41.1698 180.69L24.1498 168.69L7.12984 180.69L-9.89016 168.69L-26.9102 180.69" stroke="#04151F" stroke-width="2" stroke-linecap="round" stroke-linejoin="round"/>
<path d="M351.2 65.91L334.18 53.91L317.17 65.91L300.15 53.91L283.14 65.91L266.12 53.91L249.09 65.91" stroke="#04151F" stroke-width="2" stroke-linecap="round" stroke-linejoin="round"/>
<path d="M465.58 404.33H563.37" stroke="#04151F" stroke-width="2" stroke-linecap="round" stroke-linejoin="round"/>
<path d="M524.95 426.64H587.97" stroke="#04151F" stroke-width="2" stroke-linecap="round" stroke-linejoin="round"/>
<path d="M350.76 439.94V467.66" stroke="#04151F" stroke-width="2" stroke-linecap="round" stroke-linejoin="round"/>
<path d="M212.99 404.96H240.7" stroke="#04151F" stroke-width="2" stroke-linecap="round" stroke-linejoin="round"/>
<path d="M226.84 391.1V418.82" stroke="#04151F" stroke-width="2" stroke-linecap="round" stroke-linejoin="round"/>
<path d="M50.6799 104.53H148.47" stroke="#04151F" stroke-width="2" stroke-linecap="round" stroke-linejoin="round"/>
<path d="M110.05 126.84H173.07" stroke="#04151F" stroke-width="2" stroke-linecap="round" stroke-linejoin="round"/>
<path d="M92.02 321.14H157.82" stroke="#04151F" stroke-width="2" stroke-linecap="round" stroke-linejoin="round"/>
<path d="M582.25 9.59998H680.04" stroke="#04151F" stroke-width="2" stroke-linecap="round" stroke-linejoin="round"/>
<path d="M641.62 31.91H704.64" stroke="#04151F" stroke-width="2" stroke-linecap="round" stroke-linejoin="round"/>
<path d="M434.85 59.91H462.57" stroke="#04151F" stroke-width="2" stroke-linecap="round" stroke-linejoin="round"/>
<path d="M448.71 46.05V73.76" stroke="#04151F" stroke-width="2" stroke-linecap="round" stroke-linejoin="round"/>
<path d="M402.26 115.69H468.06" stroke="#04151F" stroke-width="2" stroke-linecap="round" stroke-linejoin="round"/>
<path d="M546.61 318.25L582.34 334.86L578.86 295.6L546.61 318.25Z" fill="#FAE394"/>
<path d="M34.2 380.1L69.93 396.71L66.45 357.46L34.2 380.1Z" fill="#FFBEAD"/>
<path d="M208.21 288.75L225.39 324.22L247.51 291.61L208.21 288.75Z" fill="#FBD1D1"/>
<path d="M562.71 78.35L579.89 113.81L602.02 81.2L562.71 78.35Z" fill="#FFBEAD"/>
<path d="M-15.77 17.33L1.40998 52.8L23.53 20.18L-15.77 17.33Z" fill="#FBD1D1"/>
<path d="M532.55 325.33L568.29 341.94L564.81 302.69L532.55 325.33Z" stroke="#04151F" stroke-width="2" stroke-linecap="round" stroke-linejoin="round"/>
<path d="M20.1399 387.18L55.8799 403.79L52.3999 364.54L20.1399 387.18Z" stroke="#04151F" stroke-width="2" stroke-linecap="round" stroke-linejoin="round"/>
<path d="M194.16 295.84L211.33 331.31L233.46 298.69L194.16 295.84Z" stroke="#04151F" stroke-width="2" stroke-linecap="round" stroke-linejoin="round"/>
<path d="M548.66 85.43L565.84 120.9L587.97 88.29L548.66 85.43Z" stroke="#04151F" stroke-width="2" stroke-linecap="round" stroke-linejoin="round"/>
<path d="M-29.8198 24.41L-12.6498 59.88L9.48018 27.27L-29.8198 24.41Z" stroke="#04151F" stroke-width="2" stroke-linecap="round" stroke-linejoin="round"/>
<path d="M292.031 177.584C298.244 171.371 298.244 161.297 292.031 155.084C285.818 148.871 275.744 148.871 269.531 155.084C263.318 161.297 263.318 171.371 269.531 177.584C275.744 183.797 285.818 183.797 292.031 177.584Z" fill="#FAE394"/>
<path d="M433.978 353.448C435.983 344.893 430.673 336.333 422.118 334.328C413.563 332.323 405.003 337.633 402.998 346.188C400.993 354.743 406.303 363.303 414.858 365.308C423.413 367.313 431.973 362.003 433.978 353.448Z" fill="#FFBEAD"/>
<path d="M198.388 21.5109C200.393 12.9558 195.083 4.39521 186.528 2.39022C177.973 0.385229 169.413 5.6951 167.408 14.2501C165.403 22.8052 170.713 31.3658 179.268 33.3708C187.823 35.3758 196.383 30.0659 198.388 21.5109Z" fill="#FFBEAD"/>
<path d="M687.42 150.42C696.207 150.42 703.33 143.297 703.33 134.51C703.33 125.723 696.207 118.6 687.42 118.6C678.633 118.6 671.51 125.723 671.51 134.51C671.51 143.297 678.633 150.42 687.42 150.42Z" fill="#FBD1D1"/>
<path d="M286.447 178.386C288.48 169.838 283.198 161.26 274.65 159.227C266.102 157.193 257.524 162.475 255.49 171.023C253.457 179.571 258.738 188.149 267.287 190.183C275.835 192.216 284.413 186.935 286.447 178.386Z" stroke="#04151F" stroke-width="2" stroke-linecap="round" stroke-linejoin="round"/>
<path d="M408.66 374.08C417.447 374.08 424.57 366.957 424.57 358.17C424.57 349.383 417.447 342.26 408.66 342.26C399.873 342.26 392.75 349.383 392.75 358.17C392.75 366.957 399.873 374.08 408.66 374.08Z" stroke="#04151F" stroke-width="2" stroke-linecap="round" stroke-linejoin="round"/>
<path d="M173.07 42.14C181.857 42.14 188.98 35.0169 188.98 26.23C188.98 17.4432 181.857 10.32 173.07 10.32C164.283 10.32 157.16 17.4432 157.16 26.23C157.16 35.0169 164.283 42.14 173.07 42.14Z" stroke="#04151F" stroke-width="2" stroke-linecap="round" stroke-linejoin="round"/>
<path d="M688.842 154.111C695.056 147.898 695.056 137.825 688.842 131.611C682.629 125.398 672.556 125.398 666.342 131.611C660.129 137.824 660.129 147.898 666.342 154.111C672.556 160.325 682.629 160.325 688.842 154.111Z" stroke="#04151F" stroke-width="2" stroke-linecap="round" stroke-linejoin="round"/>
</g>
<g clip-path="url(#clip1_282_30943)">
<path d="M1038.04 248.29H1135.84" stroke="#FCE0E0" stroke-width="2" stroke-linecap="round" stroke-linejoin="round"/>
<path d="M1097.42 270.61H1160.43" stroke="#FCE0E0" stroke-width="2" stroke-linecap="round" stroke-linejoin="round"/>
<path d="M1429.52 248.29H1492.54" stroke="#FCE0E0" stroke-width="2" stroke-linecap="round" stroke-linejoin="round"/>
<path d="M1401.21 277.99H1464.23" stroke="#FCE0E0" stroke-width="2" stroke-linecap="round" stroke-linejoin="round"/>
<path d="M1420.75 357.14H1448.47" stroke="#FCE0E0" stroke-width="2" stroke-linecap="round" stroke-linejoin="round"/>
<path d="M1434.61 343.28V371" stroke="#FCE0E0" stroke-width="2" stroke-linecap="round" stroke-linejoin="round"/>
<path d="M1263.03 242.9H1290.75" stroke="#FCE0E0" stroke-width="2" stroke-linecap="round" stroke-linejoin="round"/>
<path d="M1276.89 229.04V256.76" stroke="#FCE0E0" stroke-width="2" stroke-linecap="round" stroke-linejoin="round"/>
<path d="M911.4 256.76H939.12" stroke="#FCE0E0" stroke-width="2" stroke-linecap="round" stroke-linejoin="round"/>
<path d="M925.26 242.9V270.62" stroke="#FCE0E0" stroke-width="2" stroke-linecap="round" stroke-linejoin="round"/>
<path d="M782.42 243.74H810.13" stroke="#FCE0E0" stroke-width="2" stroke-linecap="round" stroke-linejoin="round"/>
<path d="M796.27 229.88V257.6" stroke="#FCE0E0" stroke-width="2" stroke-linecap="round" stroke-linejoin="round"/>
<path d="M1161.33 168.44H1189.05" stroke="#FCE0E0" stroke-width="2" stroke-linecap="round" stroke-linejoin="round"/>
<path d="M1175.19 154.58V182.3" stroke="#FCE0E0" stroke-width="2" stroke-linecap="round" stroke-linejoin="round"/>
<path d="M1143.94 363.14L1126.92 351.14L1109.91 363.14L1092.89 351.14L1075.87 363.14L1058.85 351.14L1041.83 363.14" stroke="#FCE0E0" stroke-width="2" stroke-linecap="round" stroke-linejoin="round"/>
<path d="M1401.21 180.44L1384.2 168.44L1367.18 180.44L1350.17 168.44L1333.15 180.44L1316.13 168.44L1299.11 180.44" stroke="#FCE0E0" stroke-width="2" stroke-linecap="round" stroke-linejoin="round"/>
<path d="M861.99 172.09L844.98 160.09L827.96 172.09L810.95 160.09L793.93 172.09L776.91 160.09L759.89 172.09" stroke="#FCE0E0" stroke-width="2" stroke-linecap="round" stroke-linejoin="round"/>
<path d="M1137.99 57.31L1120.98 45.31L1103.96 57.31L1086.95 45.31L1069.93 57.31L1052.91 45.31L1035.89 57.31" stroke="#FCE0E0" stroke-width="2" stroke-linecap="round" stroke-linejoin="round"/>
<path d="M1252.37 395.73H1350.16" stroke="#FCE0E0" stroke-width="2" stroke-linecap="round" stroke-linejoin="round"/>
<path d="M1311.74 418.05H1374.76" stroke="#FCE0E0" stroke-width="2" stroke-linecap="round" stroke-linejoin="round"/>
<path d="M1123.7 445.2H1151.42" stroke="#FCE0E0" stroke-width="2" stroke-linecap="round" stroke-linejoin="round"/>
<path d="M1137.56 431.34V459.06" stroke="#FCE0E0" stroke-width="2" stroke-linecap="round" stroke-linejoin="round"/>
<path d="M999.78 396.36H1027.5" stroke="#FCE0E0" stroke-width="2" stroke-linecap="round" stroke-linejoin="round"/>
<path d="M1013.64 382.5V410.22" stroke="#FCE0E0" stroke-width="2" stroke-linecap="round" stroke-linejoin="round"/>
<path d="M837.47 95.93H935.26" stroke="#FCE0E0" stroke-width="2" stroke-linecap="round" stroke-linejoin="round"/>
<path d="M896.84 118.25H959.86" stroke="#FCE0E0" stroke-width="2" stroke-linecap="round" stroke-linejoin="round"/>
<path d="M733.79 431.34H761.51" stroke="#FCE0E0" stroke-width="2" stroke-linecap="round" stroke-linejoin="round"/>
<path d="M747.65 417.48V445.2" stroke="#FCE0E0" stroke-width="2" stroke-linecap="round" stroke-linejoin="round"/>
<path d="M878.81 312.54H944.61" stroke="#FCE0E0" stroke-width="2" stroke-linecap="round" stroke-linejoin="round"/>
<path d="M1369.04 1H1466.83" stroke="#FCE0E0" stroke-width="2" stroke-linecap="round" stroke-linejoin="round"/>
<path d="M1428.41 23.32H1491.43" stroke="#FCE0E0" stroke-width="2" stroke-linecap="round" stroke-linejoin="round"/>
<path d="M1221.64 51.31H1249.36" stroke="#FCE0E0" stroke-width="2" stroke-linecap="round" stroke-linejoin="round"/>
<path d="M1235.5 37.45V65.17" stroke="#FCE0E0" stroke-width="2" stroke-linecap="round" stroke-linejoin="round"/>
<path d="M1189.05 107.09H1254.85" stroke="#FCE0E0" stroke-width="2" stroke-linecap="round" stroke-linejoin="round"/>
<path d="M1025.02 256.89H1122.81" stroke="#04151F" stroke-width="2" stroke-linecap="round" stroke-linejoin="round"/>
<path d="M1084.39 279.2H1147.41" stroke="#04151F" stroke-width="2" stroke-linecap="round" stroke-linejoin="round"/>
<path d="M1416.49 256.89H1479.51" stroke="#04151F" stroke-width="2" stroke-linecap="round" stroke-linejoin="round"/>
<path d="M1388.19 286.59H1451.21" stroke="#04151F" stroke-width="2" stroke-linecap="round" stroke-linejoin="round"/>
<path d="M1407.73 365.74H1435.44" stroke="#04151F" stroke-width="2" stroke-linecap="round" stroke-linejoin="round"/>
<path d="M1421.59 351.88V379.59" stroke="#04151F" stroke-width="2" stroke-linecap="round" stroke-linejoin="round"/>
<path d="M1250.01 251.5H1277.73" stroke="#04151F" stroke-width="2" stroke-linecap="round" stroke-linejoin="round"/>
<path d="M1263.87 237.64V265.36" stroke="#04151F" stroke-width="2" stroke-linecap="round" stroke-linejoin="round"/>
<path d="M898.38 265.36H926.09" stroke="#04151F" stroke-width="2" stroke-linecap="round" stroke-linejoin="round"/>
<path d="M912.24 251.5V279.21" stroke="#04151F" stroke-width="2" stroke-linecap="round" stroke-linejoin="round"/>
<path d="M769.39 252.34H797.11" stroke="#04151F" stroke-width="2" stroke-linecap="round" stroke-linejoin="round"/>
<path d="M783.25 238.48V266.2" stroke="#04151F" stroke-width="2" stroke-linecap="round" stroke-linejoin="round"/>
<path d="M1148.31 177.04H1176.03" stroke="#04151F" stroke-width="2" stroke-linecap="round" stroke-linejoin="round"/>
<path d="M1162.17 163.18V190.9" stroke="#04151F" stroke-width="2" stroke-linecap="round" stroke-linejoin="round"/>
<path d="M1130.91 371.74L1113.9 359.74L1096.89 371.74L1079.87 359.74L1062.85 371.74L1045.83 359.74L1028.81 371.74" stroke="#04151F" stroke-width="2" stroke-linecap="round" stroke-linejoin="round"/>
<path d="M1388.19 189.04L1371.17 177.04L1354.16 189.04L1337.15 177.04L1320.13 189.04L1303.11 177.04L1286.09 189.04" stroke="#04151F" stroke-width="2" stroke-linecap="round" stroke-linejoin="round"/>
<path d="M848.97 180.69L831.95 168.69L814.94 180.69L797.92 168.69L780.9 180.69L763.88 168.69L746.86 180.69" stroke="#04151F" stroke-width="2" stroke-linecap="round" stroke-linejoin="round"/>
<path d="M1124.97 65.91L1107.95 53.91L1090.94 65.91L1073.92 53.91L1056.91 65.91L1039.89 53.91L1022.86 65.91" stroke="#04151F" stroke-width="2" stroke-linecap="round" stroke-linejoin="round"/>
<path d="M1239.35 404.33H1337.14" stroke="#04151F" stroke-width="2" stroke-linecap="round" stroke-linejoin="round"/>
<path d="M1298.72 426.64H1361.74" stroke="#04151F" stroke-width="2" stroke-linecap="round" stroke-linejoin="round"/>
<path d="M1124.53 439.94V467.66" stroke="#04151F" stroke-width="2" stroke-linecap="round" stroke-linejoin="round"/>
<path d="M986.76 404.96H1014.47" stroke="#04151F" stroke-width="2" stroke-linecap="round" stroke-linejoin="round"/>
<path d="M1000.61 391.1V418.82" stroke="#04151F" stroke-width="2" stroke-linecap="round" stroke-linejoin="round"/>
<path d="M824.45 104.53H922.24" stroke="#04151F" stroke-width="2" stroke-linecap="round" stroke-linejoin="round"/>
<path d="M883.82 126.84H946.84" stroke="#04151F" stroke-width="2" stroke-linecap="round" stroke-linejoin="round"/>
<path d="M720.77 439.94H748.49" stroke="#04151F" stroke-width="2" stroke-linecap="round" stroke-linejoin="round"/>
<path d="M734.63 426.08V453.8" stroke="#04151F" stroke-width="2" stroke-linecap="round" stroke-linejoin="round"/>
<path d="M865.79 321.14H931.59" stroke="#04151F" stroke-width="2" stroke-linecap="round" stroke-linejoin="round"/>
<path d="M1356.02 9.59998H1453.81" stroke="#04151F" stroke-width="2" stroke-linecap="round" stroke-linejoin="round"/>
<path d="M1415.39 31.91H1478.41" stroke="#04151F" stroke-width="2" stroke-linecap="round" stroke-linejoin="round"/>
<path d="M1208.62 59.91H1236.34" stroke="#04151F" stroke-width="2" stroke-linecap="round" stroke-linejoin="round"/>
<path d="M1222.48 46.05V73.76" stroke="#04151F" stroke-width="2" stroke-linecap="round" stroke-linejoin="round"/>
<path d="M1176.03 115.69H1241.83" stroke="#04151F" stroke-width="2" stroke-linecap="round" stroke-linejoin="round"/>
<path d="M1320.38 318.25L1356.11 334.86L1352.63 295.6L1320.38 318.25Z" fill="#FAE394"/>
<path d="M807.97 380.1L843.7 396.71L840.22 357.46L807.97 380.1Z" fill="#FFBEAD"/>
<path d="M981.98 288.75L999.16 324.22L1021.28 291.61L981.98 288.75Z" fill="#FBD1D1"/>
<path d="M1336.48 78.35L1353.66 113.81L1375.79 81.2L1336.48 78.35Z" fill="#FFBEAD"/>
<path d="M758 17.33L775.18 52.8L797.3 20.18L758 17.33Z" fill="#FBD1D1"/>
<path d="M1306.32 325.33L1342.06 341.94L1338.58 302.69L1306.32 325.33Z" stroke="#04151F" stroke-width="2" stroke-linecap="round" stroke-linejoin="round"/>
<path d="M793.91 387.18L829.65 403.79L826.17 364.54L793.91 387.18Z" stroke="#04151F" stroke-width="2" stroke-linecap="round" stroke-linejoin="round"/>
<path d="M967.93 295.84L985.1 331.31L1007.23 298.69L967.93 295.84Z" stroke="#04151F" stroke-width="2" stroke-linecap="round" stroke-linejoin="round"/>
<path d="M1322.43 85.43L1339.61 120.9L1361.74 88.29L1322.43 85.43Z" stroke="#04151F" stroke-width="2" stroke-linecap="round" stroke-linejoin="round"/>
<path d="M743.95 24.41L761.12 59.88L783.25 27.27L743.95 24.41Z" stroke="#04151F" stroke-width="2" stroke-linecap="round" stroke-linejoin="round"/>
<path d="M1065.8 177.584C1072.01 171.371 1072.01 161.297 1065.8 155.084C1059.59 148.871 1049.51 148.871 1043.3 155.084C1037.09 161.297 1037.09 171.371 1043.3 177.584C1049.51 183.797 1059.59 183.797 1065.8 177.584Z" fill="#FAE394"/>
<path d="M1207.75 353.448C1209.75 344.893 1204.44 336.333 1195.89 334.328C1187.33 332.323 1178.77 337.633 1176.77 346.188C1174.76 354.743 1180.07 363.303 1188.63 365.308C1197.18 367.313 1205.74 362.003 1207.75 353.448Z" fill="#FFBEAD"/>
<path d="M972.158 21.5109C974.163 12.9558 968.853 4.39521 960.298 2.39022C951.743 0.385229 943.183 5.6951 941.178 14.2501C939.173 22.8052 944.483 31.3658 953.038 33.3708C961.593 35.3758 970.153 30.0659 972.158 21.5109Z" fill="#FFBEAD"/>
<path d="M1060.22 178.386C1062.25 169.838 1056.97 161.26 1048.42 159.227C1039.87 157.193 1031.29 162.475 1029.26 171.023C1027.23 179.571 1032.51 188.149 1041.06 190.183C1049.61 192.216 1058.18 186.935 1060.22 178.386Z" stroke="#04151F" stroke-width="2" stroke-linecap="round" stroke-linejoin="round"/>
<path d="M1182.43 374.08C1191.22 374.08 1198.34 366.957 1198.34 358.17C1198.34 349.383 1191.22 342.26 1182.43 342.26C1173.64 342.26 1166.52 349.383 1166.52 358.17C1166.52 366.957 1173.64 374.08 1182.43 374.08Z" stroke="#04151F" stroke-width="2" stroke-linecap="round" stroke-linejoin="round"/>
<path d="M946.84 42.14C955.627 42.14 962.75 35.0169 962.75 26.23C962.75 17.4432 955.627 10.32 946.84 10.32C938.053 10.32 930.93 17.4432 930.93 26.23C930.93 35.0169 938.053 42.14 946.84 42.14Z" stroke="#04151F" stroke-width="2" stroke-linecap="round" stroke-linejoin="round"/>
<path d="M1462.61 154.111C1468.83 147.898 1468.83 137.825 1462.61 131.611C1456.4 125.398 1446.33 125.398 1440.11 131.611C1433.9 137.824 1433.9 147.898 1440.11 154.111C1446.33 160.325 1456.4 160.325 1462.61 154.111Z" stroke="#04151F" stroke-width="2" stroke-linecap="round" stroke-linejoin="round"/>
</g>
</g>
<defs>
<clipPath id="clip0_282_30943">
<rect width="773.77" height="752.07" fill="white" transform="translate(-54)"/>
</clipPath>
<clipPath id="clip1_282_30943">
<rect width="773.77" height="752.07" fill="white" transform="translate(719.77)"/>
</clipPath>
</defs>
</svg>
