<svg width="64" height="65" viewBox="0 0 64 65" fill="none" xmlns="http://www.w3.org/2000/svg">
<g clip-path="url(#clip0_224_28510)">
<path d="M53.4782 46.1856C52.5846 45.9011 51.6282 46.3956 51.3438 47.2901C48.7172 55.5513 41.1226 61.1016 32.4461 61.1016C21.5139 61.1016 12.6198 52.2077 12.6198 41.2754C12.6198 30.3433 21.5139 21.4492 32.4461 21.4492C41.1527 21.4492 48.9674 27.2708 51.4502 35.6061C51.7182 36.5055 52.6644 37.0176 53.5637 36.7495C54.4631 36.4815 54.9751 35.5353 54.7071 34.636C53.4659 30.469 51.0147 26.6765 47.7348 23.798V16.2351C47.7349 7.55875 40.6762 0.5 31.9998 0.5C30.0646 0.5 28.1741 0.847625 26.3809 1.5335C25.5044 1.86875 25.0656 2.85087 25.4007 3.7275C25.7359 4.604 26.7176 5.04275 27.5949 4.70775C28.9988 4.17062 30.4809 3.89838 31.9998 3.89838C38.8023 3.89838 44.3367 9.43262 44.3367 16.2351V21.3236C40.7537 19.1776 36.6911 18.0506 32.4462 18.0506C27.7264 18.0506 23.3321 19.4671 19.6631 21.8953V16.2351C19.6631 13.7735 20.3854 11.3976 21.7521 9.36413C22.2756 8.58525 22.0684 7.5295 21.2896 7.006C20.5108 6.48275 19.4551 6.68937 18.9314 7.4685C17.1867 10.0644 16.2647 13.0959 16.2647 16.2351V24.6338C11.9236 28.856 9.22168 34.7555 9.22168 41.2752C9.22168 54.0814 19.6401 64.5 32.4463 64.5C37.4751 64.5 42.2607 62.9189 46.2858 59.9277C50.2314 56.9959 53.1004 52.982 54.5828 48.3199C54.8669 47.4255 54.3724 46.4699 53.4782 46.1856Z" fill="#ED3E3E"/>
<path d="M31.9997 54.9008C39.5252 54.9008 45.6258 48.8002 45.6258 41.2747C45.6258 33.7492 39.5252 27.6486 31.9997 27.6486C24.4742 27.6486 18.3735 33.7492 18.3735 41.2747C18.3735 48.8002 24.4742 54.9008 31.9997 54.9008Z" fill="#FCE0E0"/>
<path d="M31.9997 56.6012C23.5491 56.6012 16.6738 49.7261 16.6738 41.2753C16.6738 32.8246 23.5491 25.9495 31.9997 25.9495C40.4503 25.9495 47.3256 32.8246 47.3256 41.2753C47.3256 49.7261 40.4502 56.6012 31.9997 56.6012ZM31.9997 29.348C25.4228 29.348 20.0723 34.6987 20.0723 41.2753C20.0723 47.852 25.4228 53.2027 31.9997 53.2027C38.5766 53.2027 43.9271 47.852 43.9271 41.2753C43.9271 34.6987 38.5766 29.348 31.9997 29.348Z" fill="#ED3E3E"/>
<path d="M31.9999 45.924C31.5896 45.924 31.1915 45.7755 30.8806 45.5033L26.3954 41.5764C25.6894 40.9583 25.618 39.8846 26.236 39.1786C26.8545 38.4724 27.9278 38.4013 28.6338 39.0194L31.7949 41.7869L36.177 36.4109C36.77 35.6833 37.8403 35.5745 38.5676 36.1673C39.2949 36.7603 39.404 37.8306 38.8111 38.558L33.317 45.2984C33.0258 45.6559 32.6018 45.8794 32.1424 45.9181C32.0946 45.9223 32.0471 45.924 31.9999 45.924Z" fill="#ED3E3E"/>
</g>
<defs>
<clipPath id="clip0_224_28510">
<rect width="64" height="64" fill="white" transform="translate(0 0.5)"/>
</clipPath>
</defs>
</svg>
