<svg width="64" height="65" viewBox="0 0 64 65" fill="none" xmlns="http://www.w3.org/2000/svg">
<g clip-path="url(#clip0_472_36548)">
<path d="M23.4105 20.8923L25.9735 24.9798L30.653 26.1545L27.5575 29.8552L27.8865 34.6686L23.4105 32.8682L18.9342 34.6686L19.2632 29.8552L16.168 26.1545L20.8475 24.9798L23.4105 20.8923Z" fill="#FCE0E0"/>
<path d="M18.9346 36.5508C18.5428 36.5508 18.1546 36.4286 17.828 36.1913C17.3037 35.8103 17.0122 35.1865 17.0563 34.54L17.3338 30.4819L14.7241 27.3621C14.3085 26.865 14.1776 26.189 14.3777 25.5728C14.578 24.9565 15.0811 24.4865 15.7097 24.3288L19.655 23.3386L21.8157 19.8924C22.16 19.3433 22.7626 19.0099 23.4106 19.0099C24.0586 19.0099 24.6612 19.3433 25.0055 19.8924L27.1662 23.3386L31.1112 24.3288C31.7397 24.4865 32.2429 24.9565 32.4432 25.5728C32.6434 26.189 32.5125 26.8651 32.0969 27.3621L29.4871 30.4821L29.7646 34.5403C29.8088 35.1869 29.5175 35.8106 28.993 36.1915C28.4686 36.5723 27.7852 36.6569 27.1842 36.4151L23.4105 34.8973L19.6366 36.4151C19.4101 36.5059 19.1717 36.5508 18.9346 36.5508ZM19.5378 27.249L20.7073 28.647C21.0188 29.0198 21.1743 29.4984 21.1415 29.9831L21.0172 31.8016L22.7083 31.1214C23.1592 30.9401 23.6623 30.9401 24.1131 31.1214L25.804 31.8015L25.6797 29.9831C25.6466 29.4984 25.8021 29.0198 26.1138 28.647L27.2833 27.249L25.5155 26.8054C25.0443 26.6871 24.637 26.3913 24.3788 25.9796L23.4106 24.4354L22.4423 25.9796C22.1842 26.3913 21.777 26.687 21.3057 26.8054L19.5378 27.249Z" fill="#ED3E3E"/>
<path d="M47.8325 26.3727H37.1031C36.0637 26.3727 35.2207 25.5299 35.2207 24.4903C35.2207 23.4507 36.0636 22.6079 37.1031 22.6079H47.8325C48.8718 22.6079 49.7148 23.4507 49.7148 24.4903C49.7148 25.5299 48.8721 26.3727 47.8325 26.3727Z" fill="#ED3E3E"/>
<path d="M44.0658 32.9526H37.1036C36.0642 32.9526 35.2212 32.1099 35.2212 31.0702C35.2212 30.0306 36.0641 29.1879 37.1036 29.1879H44.0658C45.1052 29.1879 45.9482 30.0306 45.9482 31.0702C45.9481 32.1099 45.1052 32.9526 44.0658 32.9526Z" fill="#ED3E3E"/>
<path d="M23.4105 41.2358L25.9735 45.3233L30.653 46.4977L27.5575 50.1986L27.8865 55.012L23.4105 53.2115L18.9342 55.012L19.2632 50.1986L16.168 46.4977L20.8475 45.3233L23.4105 41.2358Z" fill="#FCE0E0"/>
<path d="M27.8866 56.8944C27.6495 56.8944 27.4111 56.8496 27.1845 56.7585L23.4107 55.2406L19.6368 56.7585C19.0358 57.0003 18.3523 56.9156 17.8281 56.5349C17.3038 56.1539 17.0122 55.5301 17.0565 54.8836L17.334 50.8255L14.7241 47.7055C14.3085 47.2084 14.1776 46.5324 14.3777 45.9161C14.578 45.2999 15.0811 44.8299 15.7097 44.6721L19.655 43.682L21.8157 40.2358C22.16 39.6866 22.7626 39.3533 23.4106 39.3533C24.0586 39.3533 24.6612 39.6866 25.0055 40.2358L27.1662 43.682L31.1112 44.6721C31.7397 44.8299 32.2429 45.2999 32.4432 45.9161C32.6434 46.5324 32.5125 47.2084 32.0969 47.7055L29.4871 50.8255L29.7646 54.8836C29.8088 55.5303 29.5175 56.154 28.993 56.5349C28.6665 56.7723 28.2783 56.8944 27.8866 56.8944ZM19.5378 47.5928L20.7073 48.9908C21.0188 49.3635 21.1743 49.8421 21.1415 50.3269L21.0172 52.1454L22.7083 51.4651C23.1592 51.2839 23.6623 51.2839 24.1131 51.4651L25.804 52.1454L25.6797 50.3269C25.6466 49.8421 25.8021 49.3635 26.1138 48.9908L27.2833 47.5928L25.5155 47.1491C25.0443 47.0309 24.637 46.735 24.3788 46.3234L23.4106 44.7791L22.4423 46.3234C22.1842 46.735 21.777 47.0308 21.3057 47.1491L19.5378 47.5928Z" fill="#ED3E3E"/>
<path d="M47.8325 46.7164H37.1031C36.0637 46.7164 35.2207 45.8737 35.2207 44.834C35.2207 43.7944 36.0636 42.9517 37.1031 42.9517H47.8325C48.8718 42.9517 49.7148 43.7944 49.7148 44.834C49.7148 45.8737 48.8721 46.7164 47.8325 46.7164Z" fill="#ED3E3E"/>
<path d="M44.0658 53.296H37.1036C36.0642 53.296 35.2212 52.4532 35.2212 51.4136C35.2212 50.374 36.0641 49.5312 37.1036 49.5312H44.0658C45.1052 49.5312 45.9482 50.374 45.9482 51.4136C45.9481 52.4534 45.1052 53.296 44.0658 53.296Z" fill="#ED3E3E"/>
<path d="M21.6467 7.65857H8.47021V13.6763H21.6467V7.65857Z" fill="#FCE0E0"/>
<path d="M55.5295 7.65857H42.353V13.6763H55.5295V7.65857Z" fill="#FCE0E0"/>
<path d="M40.4704 13.6765C40.4704 14.7161 41.3133 15.5589 42.3528 15.5589H55.5298C56.5692 15.5589 57.4122 14.7161 57.4122 13.6765V7.65875C57.4122 6.61912 56.5693 5.77637 55.5298 5.77637H44.2352V2.38238C44.235 1.34275 43.3922 0.5 42.3528 0.5H21.6468C20.6074 0.5 19.7644 1.34275 19.7644 2.38238V5.7765H8.46978C7.4304 5.7765 6.5874 6.61925 6.5874 7.65887V13.6766V62.6177C6.5874 63.6574 7.43028 64.5001 8.46978 64.5001H55.5298C56.5692 64.5001 57.4122 63.6574 57.4122 62.6177V24.4904C57.4122 23.4508 56.5693 22.608 55.5298 22.608C54.4903 22.608 53.6474 23.4508 53.6474 24.4904V60.7352H10.3522V15.5589H21.6468H34.8929C35.9323 15.5589 36.7753 14.7161 36.7753 13.6765C36.7753 12.6369 35.9324 11.7941 34.8929 11.7941H23.5292V7.65875V4.26475H40.4703V7.65875V13.6765H40.4704ZM10.3522 9.54113H19.7645V11.7941H10.3522V9.54113ZM53.6474 11.7941H44.235V9.54113H53.6474V11.7941Z" fill="#ED3E3E"/>
</g>
<defs>
<clipPath id="clip0_472_36548">
<rect width="64" height="64" fill="white" transform="translate(0 0.5)"/>
</clipPath>
</defs>
</svg>
