<svg width="20" height="25" viewBox="0 0 20 25" fill="none" xmlns="http://www.w3.org/2000/svg">
<path d="M15.0002 14.25C15.0002 14.5152 14.8949 14.7696 14.7074 14.9571C14.5198 15.1447 14.2655 15.25 14.0002 15.25H6.00024C5.73503 15.25 5.48067 15.1447 5.29314 14.9571C5.1056 14.7696 5.00024 14.5152 5.00024 14.25C5.00024 13.9848 5.1056 13.7305 5.29314 13.5429C5.48067 13.3554 5.73503 13.25 6.00024 13.25H14.0002C14.2655 13.25 14.5198 13.3554 14.7074 13.5429C14.8949 13.7305 15.0002 13.9848 15.0002 14.25ZM11.0002 17.25H6.00024C5.73503 17.25 5.48067 17.3554 5.29314 17.5429C5.1056 17.7305 5.00024 17.9848 5.00024 18.25C5.00024 18.5152 5.1056 18.7696 5.29314 18.9571C5.48067 19.1447 5.73503 19.25 6.00024 19.25H11.0002C11.2655 19.25 11.5198 19.1447 11.7074 18.9571C11.8949 18.7696 12.0002 18.5152 12.0002 18.25C12.0002 17.9848 11.8949 17.7305 11.7074 17.5429C11.5198 17.3554 11.2655 17.25 11.0002 17.25ZM20.0002 10.735V19.25C19.9987 20.5756 19.4714 21.8465 18.534 22.7838C17.5967 23.7211 16.3258 24.2484 15.0002 24.25H5.00024C3.67465 24.2484 2.4038 23.7211 1.46646 22.7838C0.529126 21.8465 0.001832 20.5756 0.000244141 19.25V5.25002C0.001832 3.92443 0.529126 2.65358 1.46646 1.71624C2.4038 0.778905 3.67465 0.251611 5.00024 0.250023H9.51524C10.4349 0.247656 11.3458 0.427611 12.1955 0.779482C13.0451 1.13135 13.8166 1.64816 14.4652 2.30002L17.9492 5.78602C18.6015 6.43426 19.1186 7.20548 19.4707 8.055C19.8227 8.90451 20.0027 9.81545 20.0002 10.735ZM13.0512 3.71402C12.7365 3.40918 12.3832 3.14695 12.0002 2.93402V7.25002C12.0002 7.51524 12.1056 7.76959 12.2931 7.95713C12.4807 8.14467 12.735 8.25002 13.0002 8.25002H17.3162C17.1032 7.86721 16.8406 7.51417 16.5352 7.20002L13.0512 3.71402ZM18.0002 10.735C18.0002 10.57 17.9682 10.412 17.9532 10.25H13.0002C12.2046 10.25 11.4415 9.93395 10.8789 9.37134C10.3163 8.80873 10.0002 8.04567 10.0002 7.25002V2.29702C9.83824 2.28202 9.67924 2.25002 9.51524 2.25002H5.00024C4.20459 2.25002 3.44153 2.56609 2.87892 3.1287C2.31631 3.69131 2.00024 4.45437 2.00024 5.25002V19.25C2.00024 20.0457 2.31631 20.8087 2.87892 21.3713C3.44153 21.934 4.20459 22.25 5.00024 22.25H15.0002C15.7959 22.25 16.559 21.934 17.1216 21.3713C17.6842 20.8087 18.0002 20.0457 18.0002 19.25V10.735Z" fill="#04151F"/>
</svg>
