<svg width="28" height="29" viewBox="0 0 28 29" fill="none" xmlns="http://www.w3.org/2000/svg">
<path d="M26.6 27.1006V17.8711C26.6 13.3351 25.6235 9.87012 20.3315 9.87012C17.78 9.87012 16.079 11.2561 15.386 12.5791H15.323V10.2796H10.3145V27.1006H15.5435V18.7531C15.5435 16.5481 15.953 14.4376 18.662 14.4376C21.3395 14.4376 21.371 16.9261 21.371 18.8791V27.0691H26.6V27.1006Z" fill="#ED3E3E"/>
<path d="M1.80957 10.2791H7.03857V27.1001H1.80957V10.2791Z" fill="#ED3E3E"/>
<path d="M4.4239 1.90015C2.7544 1.90015 1.3999 3.25465 1.3999 4.92415C1.3999 6.59365 2.7544 7.97965 4.4239 7.97965C6.0934 7.97965 7.4479 6.59365 7.4479 4.92415C7.4479 3.25465 6.0934 1.90015 4.4239 1.90015Z" fill="#ED3E3E"/>
</svg>
